# AST/ASF file generated using VICON BodyLanguage
# -----------------------------------------------
:version 1.10
:name VICON
:units
  mass 1.0
  length 0.45
  angle deg
:documentation
   .ast/.asf automatically generated from VICON data using
   VICON BodyBuilder and BodyLanguage model FoxedUp or BRILLIANT.MOD
:root
   order TX TY TZ RX RY RZ
   axis XYZ
   position 0 0 0  
   orientation 0 0 0 
:bonedata
  begin
     id 1 
     name lhipjoint
     direction 0.54267 -0.795011 0.271047 
     length 2.39899 
     axis 0 0 0  XYZ
  end
  begin
     id 2 
     name lfemur
     direction 0.34202 -0.939693 0  
     length 7.49701  
     axis 0 0 20  XYZ
    dof rx ry rz
    limits (-160.0 20.0)
           (-70.0 70.0)
           (-60.0 70.0)
  end
  begin
     id 3 
     name ltibia
     direction 0.34202 -0.939693 0   
     length 8.1668   
     axis 0 0 20   XYZ
    dof rx
    limits (-10.0 170.0)
  end
  begin
     id 4 
     name lfoot
     direction 0.0736283 -0.202292 0.976554   
     length 2.13544   
     axis -90 7.62852e-016 20   XYZ
    dof rx rz
    limits (-45.0 90.0)
           (-70.0 20.0)
  end
  begin
     id 5 
     name ltoes
     direction 1.53557e-011 -4.22024e-011 1   
     length 1.07411   
     axis -90 7.62852e-016 20   XYZ
    dof rx
    limits (-90.0 20.0)
  end
  begin
     id 6 
     name rhipjoint
     direction -0.538061 -0.797813 0.272002   
     length 2.39057  
     axis 0 0 0  XYZ 
  end
  begin
     id 7 
     name rfemur
     direction -0.34202 -0.939693 0   
     length 7.50152   
     axis 0 0 -20   XYZ
    dof rx ry rz
    limits (-160.0 20.0)
           (-70.0 70.0)
           (-70.0 60.0)
  end
  begin
     id 8 
     name rtibia
     direction -0.34202 -0.939693 0   
     length 8.05793   
     axis 0 0 -20   XYZ
    dof rx
    limits (-10.0 170.0)
 end
 begin
     id 9 
     name rfoot
     direction -0.0765195 -0.210236 0.974652   
     length 2.28698  
     axis -90 -7.62852e-016 -20   XYZ
    dof rx rz
    limits (-45.0 90.0)
           (-20.0 70.0)
  end
  begin
     id 10 
     name rtoes
     direction -1.53542e-011 -4.21847e-011 1   
     length 1.14762   
     axis -90 -7.62852e-016 -20   XYZ
    dof rx
    limits (-90.0 20.0)
  end
  begin
     id 11 
     name lowerback
     direction -0.0217239 0.996592 -0.0795765   
     length 2.08176   
     axis 0 0 0   XYZ
    dof rx ry rz
    limits (-20.0 45.0)
           (-30.0 30.0)
           (-30.0 30.0)
  end
  begin
     id 12 
     name upperback
     direction -0.00563773 0.999651 -0.0258155   
     length 2.08898   
     axis 0 0 0   XYZ
    dof rx ry rz
    limits (-20.0 45.0)
           (-30.0 30.0)
           (-30.0 30.0)
  end
  begin
     id 13 
     name thorax
     direction 0.0032706 0.999923 0.0119599   
     length 2.0968   
     axis 0 0 0   XYZ
    dof rx ry rz
    limits (-20.0 45.0)
           (-30.0 30.0)
           (-30.0 30.0)
  end
  begin
     id 14 
     name lowerneck
     direction -0.0285886 0.99568 0.0883427   
     length 1.81272   
     axis 0 0 0   XYZ
    dof rx ry rz
    limits (-20.0 45.0)
           (-30.0 30.0)
           (-30.0 30.0)
  end
  begin
     id 15 
     name upperneck
     direction 0.0807535 0.97985 -0.18268   
     length 1.82518   
     axis 0 0 0   XYZ
    dof rx ry rz
    limits (-20.0 45.0)
           (-30.0 30.0)
           (-30.0 30.0)
  end
  begin
     id 16
     name head
     direction 0.0236605 0.997053 -0.0729767  
     length 1.84443  
     axis 0 0 0   XYZ
    dof rx ry rz
    limits (-20.0 45.0)
           (-30.0 30.0)
           (-30.0 30.0)
  end
  begin
     id 17 
     name lclavicle
     direction 0.918986 0.39378 -0.0200683  
     length 3.27822  
     axis 0 0 0   XYZ
    dof ry rz
    limits (-20.0 10.0)
           (0.0 20.0)
  end
  begin
     id 18 
     name lhumerus
     direction 1 -4.4897e-011 2.09544e-027   
     length 5.5568   
     axis 180 -30 -90   XYZ
    dof rx ry rz
    limits (-60.0 90.0)
           (-90.0 90.0)
           (-90.0 90.0)
  end
  begin
     id 19
     name lradius
     direction 1 -4.48957e-011 -1.27696e-026   
     length 3.63979   
     axis 180 -30 -90   XYZ
    dof rx
    limits (-10.0 170.0)
  end
  begin
     id 20
     name lwrist
     direction 1 -4.49001e-011 -1.49001e-026   
     length 1.8199   
     axis 9.0955e-015 90 90   XYZ
    dof ry
    limits (-180.0 0.0)
 end
  begin
     id 21 
     name lhand
     direction 1 -4.48709e-011 -2.9758e-026   
     length 0.569419   
     axis 1.90115e-014 90 90   XYZ
    dof rx rz
    limits (-90.0 90.0)
           (-45.0 45.0)
  end
  begin
     id 22 
     name lfingers
     direction 1 -4.49175e-011 -5.96505e-026   
     length 0.45908   
     axis 3.80223e-014 90 90   XYZ
    dof rx
    limits (0.0 90.0)
  end
  begin
     id 23
     name lthumb
     direction 0.707107 -6.34864e-011 0.707107   
     length 0.65915   
     axis -90 45 -3.84942e-014   XYZ
    dof rx rz
    limits (-45.0 45.0)
           (-45.0 45.0)
  end
  begin
     id 24 
     name rclavicle
     direction -0.911913 0.396426 -0.106115   
     length 3.46301  
     axis 0 0 0   XYZ 
    dof ry rz
    limits (-10.0 20.0)
           (-20.0 0.0)
  end
  begin
     id 25 
     name rhumerus
     direction -1 -4.48965e-011 7.78516e-028  
     length 5.34339   
     axis 180 30 90   XYZ
    dof rx ry rz
    limits (-90.0 60.0)
           (-90.0 90.0)
           (-90.0 90.0)
  end
  begin
     id 26 
     name rradius
     direction -1 -4.48948e-011 -5.79823e-027   
     length 3.65101   
     axis 180 30 90   XYZ
    dof rx
    limits (-10.0 170.0)
  end
  begin
     id 27 
     name rwrist
     direction -1 -4.48995e-011 -1.48996e-026   
     length 1.8255   
     axis 9.0955e-015 -90 -90   XYZ
    dof ry
    limits (-180.0 0.0)
  end
  begin
     id 28
     name rhand
     direction -1 -4.48957e-011 -2.97937e-026   
     length 0.694249   
     axis 1.90115e-014 -90 -90   XYZ
    dof rx rz
    limits (-90.0 90.0)
           (-45.0 45.0)
  end
  begin
     id 29
     name rfingers
     direction -1 -4.4898e-011 -5.95943e-026   
     length 0.559721   
     axis 3.80223e-014 -90 -90   XYZ
    dof rx
    limits (0.0 90.0)
  end
  begin
     id 30
     name rthumb
     direction -0.707107 -6.34969e-011 0.707107   
     length 0.803651   
     axis -90 -45 3.84942e-014   XYZ
    dof rx rz
    limits (-45.0 45.0)
           (-45.0 45.0)
  end
:hierarchy
  begin
    root lhipjoint rhipjoint lowerback
    lhipjoint lfemur
    lfemur ltibia
    ltibia lfoot
    lfoot ltoes
    rhipjoint rfemur
    rfemur rtibia
    rtibia rfoot
    rfoot rtoes
    lowerback upperback
    upperback thorax
    thorax lowerneck lclavicle rclavicle
    lowerneck upperneck
    upperneck head
    lclavicle lhumerus
    lhumerus lradius
    lradius lwrist
    lwrist lhand lthumb
    lhand lfingers
    rclavicle rhumerus
    rhumerus rradius
    rradius rwrist
    rwrist rhand rthumb
    rhand rfingers
  end

#!OML:ASF H:\Terrain\Walking\May29\JustinRory\rory.ASF
:FULLY-SPECIFIED
:DEGREES
847
root 17.1492 18.4071 0.538518 -9.24278 -59.9725 9.09477
lowerback 1.58989 -0.105393 -3.81253
upperback 1.19272 -0.191437 0.198179
thorax 0.345814 -0.122541 2.34305
lowerneck -5.5163 -5.86833 -7.59774
upperneck 23.0229 -8.09811 2.47336
head 8.47574 -4.39251 1.33749
rclavicle -5.36097e-014 -8.74653e-015
rhumerus -21.0363 34.8354 -66.3029
rradius 136.838
rwrist -58.3205
rhand 44.6297 27.0545
rfingers 7.12502
rthumb 66.1033 21.8287
lclavicle -5.36097e-014 -8.74653e-015
lhumerus -24.1635 -29.9188 70.0411
lradius 145.551
lwrist 63.7605
lhand 30.9822 44.7846
lfingers 7.12502
lthumb 54.5878 63.2173
rfemur -12.0704 20.1209 9.37722
rtibia 28.1424
rfoot -13.6154 5.14542
rtoes 8.77415
lfemur -7.99376 -6.94097 -17.2461
ltibia 26.8008
lfoot -14.9581 5.02645
ltoes -6.56127
848
root 17.1932 18.4037 0.592339 -10.1344 -60.5428 10.0379
lowerback 1.92174 -0.14845 -4.04257
upperback 1.28109 -0.267096 -0.049352
thorax 0.255902 -0.161386 2.21979
lowerneck -5.38803 -5.8155 -7.47188
upperneck 22.4857 -8.04954 2.6038
head 8.26566 -4.34126 1.37632
rclavicle 2.67117e-015 7.95139e-016
rhumerus -22.0934 33.9794 -66.7708
rradius 136.723
rwrist -57.9126
rhand 45.1729 28.0911
rfingers 7.12502
rthumb 66.5184 23.664
lclavicle 2.67117e-015 7.95139e-016
lhumerus -25.2911 -28.6291 69.4691
lradius 145.837
lwrist 63.8771
lhand 31.2779 44.701
lfingers 7.12502
lthumb 54.852 62.9462
rfemur -12.264 20.5993 8.68313
rtibia 28.1769
rfoot -13.4165 5.30827
rtoes 8.21646
lfemur -8.00626 -6.51648 -17.9374
ltibia 27.0601
lfoot -15.2387 5.37795
ltoes -7.38255
849
root 17.2428 18.403 0.645499 -10.4643 -61.2179 10.3717
lowerback 2.21352 -0.0482004 -3.91317
upperback 1.42332 -0.144113 -0.214593
thorax 0.228999 -0.10103 1.976
lowerneck -5.57097 -5.90046 -7.36508
upperneck 22.2381 -8.2101 2.88019
head 8.22977 -4.37536 1.43167
rclavicle 1.56294e-014 1.55052e-014
rhumerus -23.1045 32.7301 -66.9181
rradius 136.556
rwrist -57.1811
rhand 44.9886 29.5976
rfingers 7.12502
rthumb 66.3781 24.8962
lclavicle 1.56294e-014 1.55052e-014
lhumerus -26.1621 -27.4167 69.0299
lradius 145.927
lwrist 63.8826
lhand 32.0068 44.708
lfingers 7.12502
lthumb 55.5016 62.4775
rfemur -12.5772 20.774 8.3163
rtibia 28.2271
rfoot -13.0356 5.77743
rtoes 6.55144
lfemur -8.0788 -5.82134 -18.231
ltibia 27.2792
lfoot -15.3995 5.58563
ltoes -9.24311
850
root 17.2935 18.4063 0.698037 -10.9939 -61.9071 10.8896
lowerback 2.59984 0.0978733 -3.9583
upperback 1.54485 0.031528 -0.340534
thorax 0.126445 -0.013971 1.86846
lowerneck -5.91399 -6.07086 -7.2391
upperneck 22.1674 -8.46351 3.03368
head 8.28283 -4.46224 1.42596
rclavicle -4.40805e-014 -3.97569e-016
rhumerus -24.1729 31.3989 -67.0159
rradius 136.475
rwrist -56.4317
rhand 43.8785 29.2628
rfingers 7.12502
rthumb 65.5216 22.979
lclavicle -4.40805e-014 -3.97569e-016
lhumerus -27.1508 -25.992 68.8515
lradius 145.998
lwrist 63.7221
lhand 33.3185 45.6253
lfingers 7.12502
lthumb 56.6631 62.4885
rfemur -12.8484 21.1013 7.85716
rtibia 28.2254
rfoot -12.7069 6.20731
rtoes 5.9125
lfemur -8.12201 -5.13804 -18.6051
ltibia 27.4996
lfoot -15.4589 5.86706
ltoes -9.66239
851
root 17.3436 18.4155 0.753887 -11.2112 -62.7054 11.1795
lowerback 2.85766 0.0306909 -4.03249
upperback 1.58877 -0.071804 -0.273289
thorax 0.0339848 -0.0656437 1.98196
lowerneck -6.00268 -6.04745 -7.15392
upperneck 21.7681 -8.36496 2.83133
head 8.14627 -4.42016 1.35715
rclavicle 3.51849e-014 1.19271e-015
rhumerus -24.7963 30.5263 -66.7724
rradius 136.546
rwrist -56.4396
rhand 42.861 26.1737
rfingers 7.12502
rthumb 64.7202 18.5378
lclavicle 3.51849e-014 1.19271e-015
lhumerus -28.6482 -23.6434 68.8444
lradius 146.187
lwrist 63.5384
lhand 34.385 47.259
lfingers 7.12502
lthumb 57.6001 63.3339
rfemur -13.2326 21.3457 7.49561
rtibia 28.1601
rfoot -12.3794 6.69606
rtoes 5.89727
lfemur -8.22067 -4.66438 -18.8393
ltibia 27.6207
lfoot -15.6292 6.24953
ltoes -7.41574
852
root 17.397 18.4182 0.807092 -10.797 -63.5781 10.831
lowerback 3.0745 -0.0577282 -3.88744
upperback 1.62875 -0.194666 -0.0815435
thorax -0.0383371 -0.126187 2.10167
lowerneck -6.06959 -6.00705 -7.15235
upperneck 21.316 -8.23858 2.66279
head 7.99306 -4.36761 1.31743
rclavicle 2.93704e-014 -2.78299e-015
rhumerus -25.3783 29.433 -66.5233
rradius 136.256
rwrist -56.923
rhand 43.4616 24.4638
rfingers 7.12502
rthumb 65.195 17.6149
lclavicle 2.93704e-014 -2.78299e-015
lhumerus -29.9381 -20.8675 68.2216
lradius 146.358
lwrist 63.7028
lhand 34.9798 47.9084
lfingers 7.12502
lthumb 58.1196 63.522
rfemur -13.697 21.6391 7.46047
rtibia 28.0353
rfoot -12.0781 6.95966
rtoes 5.16241
lfemur -8.33938 -4.18842 -18.7024
ltibia 27.5874
lfoot -15.8137 6.33435
ltoes -4.43233
853
root 17.4459 18.4204 0.862238 -10.9735 -64.5606 11.0001
lowerback 3.37239 0.0273953 -3.93863
upperback 1.71198 -0.0958831 -0.0184518
thorax -0.125529 -0.0776263 2.19278
lowerneck -6.31496 -6.03126 -6.9507
upperneck 21.1014 -8.23899 2.53509
head 7.95072 -4.35579 1.23772
rclavicle 1.52319e-014 -9.54166e-015
rhumerus -26.4378 28.063 -66.563
rradius 135.733
rwrist -57.2344
rhand 43.9529 24.5906
rfingers 7.12502
rthumb 65.5796 18.4092
lclavicle 1.52319e-014 -9.54166e-015
lhumerus -30.9785 -18.174 67.2391
lradius 146.388
lwrist 64.0822
lhand 35.3074 47.6212
lfingers 7.12502
lthumb 58.4047 62.9738
rfemur -14.0631 21.73 7.22816
rtibia 27.8432
rfoot -11.8581 7.50391
rtoes 5.38599
lfemur -8.22564 -3.35273 -18.7938
ltibia 27.4691
lfoot -15.6674 6.14764
ltoes -2.89866
854
root 17.4895 18.4326 0.927106 -11.5904 -65.5707 11.7247
lowerback 3.47227 0.0323274 -4.16142
upperback 1.77771 -0.100519 0.00436911
thorax -0.112581 -0.0832398 2.34154
lowerneck -6.59377 -5.94532 -6.71332
upperneck 20.9705 -8.06945 2.27904
head 7.92697 -4.27376 1.12501
rclavicle 2.21396e-014 3.97569e-016
rhumerus -27.5181 26.9983 -66.5748
rradius 135.034
rwrist -56.9783
rhand 42.7751 24.9503
rfingers 7.12502
rthumb 64.6518 17.2042
lclavicle 2.21396e-014 3.97569e-016
lhumerus -32.34 -14.9176 66.5355
lradius 146.294
lwrist 64.6784
lhand 35.8875 48.1817
lfingers 7.12502
lthumb 58.9076 63.0598
rfemur -14.4416 21.2968 6.73887
rtibia 27.5978
rfoot -11.3766 8.52235
rtoes 8.16472
lfemur -8.1004 -2.34643 -19.1571
ltibia 27.3278
lfoot -15.4062 6.16416
ltoes -3.24626
855
root 17.5389 18.4445 0.987812 -11.7151 -66.3721 12.0014
lowerback 3.54684 -0.0836084 -4.2194
upperback 1.81186 -0.259748 0.0916367
thorax -0.106904 -0.164481 2.46962
lowerneck -6.74454 -5.89296 -6.85125
upperneck 20.7586 -7.96131 2.31559
head 7.88613 -4.22442 1.16758
rclavicle -6.31141e-015 -1.98785e-015
rhumerus -28.5604 25.762 -66.6356
rradius 134.049
rwrist -56.4653
rhand 42.5163 26.0277
rfingers 7.12502
rthumb 64.4453 17.9536
lclavicle -6.31141e-015 -1.98785e-015
lhumerus -33.8823 -11.4478 65.9064
lradius 146.09
lwrist 65.3307
lhand 36.422 49.5168
lfingers 7.12502
lthumb 59.3689 63.9431
rfemur -14.7407 21.2216 6.4622
rtibia 27.3132
rfoot -10.8475 8.78377
rtoes 11.024
lfemur -8.113 -1.49831 -19.316
ltibia 27.1545
lfoot -15.3477 6.29228
ltoes -6.23612
856
root 17.5945 18.455 1.03761 -11.3026 -67.0901 11.8036
lowerback 3.60981 -0.25352 -4.36997
upperback 1.83686 -0.491887 0.378932
thorax -0.0947084 -0.283403 2.85857
lowerneck -6.76818 -5.82832 -7.21069
upperneck 20.3025 -7.81975 2.44816
head 7.75362 -4.16484 1.28756
rclavicle 2.48481e-015 -7.55382e-015
rhumerus -29.337 24.6304 -66.2894
rradius 133.315
rwrist -55.9461
rhand 42.4056 25.8294
rfingers 7.12502
rthumb 64.3568 17.6168
lclavicle 2.48481e-015 -7.55382e-015
lhumerus -35.4184 -7.84916 65.1123
lradius 145.785
lwrist 65.6148
lhand 35.9535 49.9213
lfingers 7.12502
lthumb 58.9647 64.7444
rfemur -15.15 21.5018 6.37829
rtibia 27.0239
rfoot -10.7224 8.23332
rtoes 11.4182
lfemur -8.32349 -0.868744 -19.2305
ltibia 26.9684
lfoot -15.2217 6.38012
ltoes -8.68967
857
root 17.651 18.4719 1.08792 -10.5628 -67.9115 11.3361
lowerback 3.57843 -0.447441 -4.58182
upperback 1.88889 -0.752779 0.807572
thorax 0.0074667 -0.420835 3.42839
lowerneck -6.80479 -5.67834 -7.37656
upperneck 19.6528 -7.52389 2.32166
head 7.53314 -4.03542 1.30855
rclavicle 2.21148e-014 0
rhumerus -29.7523 23.8523 -65.3829
rradius 132.82
rwrist -55.1408
rhand 41.3729 24.9034
rfingers 7.12502
rthumb 63.523 15.4446
lclavicle 2.21148e-014 0
lhumerus -36.9773 -3.86695 64.0639
lradius 145.337
lwrist 65.8651
lhand 35.2812 49.3501
lfingers 7.12502
lthumb 58.3819 64.7239
rfemur -15.7882 21.4084 6.44317
rtibia 26.8
rfoot -10.7234 7.66457
rtoes 9.68568
lfemur -8.59961 -0.447578 -19.0138
ltibia 26.7623
lfoot -15.0212 6.57022
ltoes -8.33265
858
root 17.6997 18.4903 1.1396 -10.5704 -68.8765 11.4601
lowerback 3.83394 -0.411551 -4.57707
upperback 1.89237 -0.71813 0.815535
thorax -0.135018 -0.400539 3.43588
lowerneck -6.75128 -5.71763 -7.2721
upperneck 19.1702 -7.60883 2.50646
head 7.3716 -4.0456 1.35121
rclavicle 4.65653e-014 -3.97569e-015
rhumerus -31.2782 21.9476 -65.9077
rradius 131.901
rwrist -52.7558
rhand 41.0074 26.2578
rfingers 7.12502
rthumb 63.2249 16.3775
lclavicle 4.65653e-014 -3.97569e-015
lhumerus -38.4226 -0.459165 62.613
lradius 144.672
lwrist 66.444
lhand 34.973 48.7835
lfingers 7.12502
lthumb 58.1136 64.4025
rfemur -16.2232 21.2272 6.45972
rtibia 26.6646
rfoot -10.8442 7.23293
rtoes 6.83976
lfemur -8.54342 0.114333 -19.0283
ltibia 26.4672
lfoot -15.079 6.72915
ltoes -7.963
859
root 17.7408 18.5042 1.18916 -11.8498 -69.7254 12.893
lowerback 4.18042 -0.247666 -4.77783
upperback 1.83739 -0.528955 0.484053
thorax -0.40418 -0.298453 3.20296
lowerneck -6.66625 -5.92561 -7.10322
upperneck 18.853 -7.98874 2.91315
head 7.2806 -4.17819 1.42622
rclavicle 9.44227e-015 1.19271e-015
rhumerus -33.212 20.5005 -66.9457
rradius 131.127
rwrist -48.2595
rhand 36.625 28.347
rfingers 7.12502
rthumb 59.5435 14.0962
lclavicle 9.44227e-015 1.19271e-015
lhumerus -39.745 2.48959 60.986
lradius 143.767
lwrist 66.8131
lhand 34.4584 47.9893
lfingers 7.12502
lthumb 57.6644 64.0081
rfemur -16.5175 20.9315 6.0178
rtibia 26.6337
rfoot -11.1273 6.90656
rtoes 6.14805
lfemur -8.35598 0.482782 -19.5989
ltibia 26.0804
lfoot -15.4218 6.95719
ltoes -7.01584
860
root 17.781 18.5171 1.23974 -12.6322 -70.3259 14.0369
lowerback 4.19295 -0.256645 -5.14891
upperback 1.78329 -0.558167 0.371663
thorax -0.461015 -0.311889 3.29731
lowerneck -6.74944 -6.03473 -6.95782
upperneck 18.6131 -8.16436 3.04555
head 7.22509 -4.23663 1.42935
rclavicle 1.49585e-014 1.63003e-014
rhumerus -33.4773 16.9765 -65.6657
rradius 129.89
rwrist -54.7805
rhand 45.3109 22.262
rfingers 7.12502
rthumb 66.6231 18.0424
lclavicle 1.49585e-014 1.63003e-014
lhumerus -41.2436 5.95584 59.3132
lradius 142.679
lwrist 67.3201
lhand 33.8674 47.4959
lfingers 7.12502
lthumb 57.1463 63.9594
rfemur -17.0484 20.2327 5.61591
rtibia 26.7922
rfoot -11.4183 6.48998
rtoes 6.88878
lfemur -8.36801 0.463553 -20.0979
ltibia 25.594
lfoot -15.9554 7.19797
ltoes -3.36255
861
root 17.8208 18.5315 1.28443 -12.6281 -71.0819 14.4796
lowerback 4.04989 -0.261927 -5.3038
upperback 1.71224 -0.563786 0.348065
thorax -0.45211 -0.313631 3.35931
lowerneck -6.93215 -6.11065 -6.8447
upperneck 18.4661 -8.28498 3.16954
head 7.21575 -4.27124 1.43565
rclavicle -5.32743e-014 3.18055e-015
rhumerus -36.06 16.6136 -66.0423
rradius 129.536
rwrist -50.2939
rhand 38.4751 26.9793
rfingers 7.12502
rthumb 61.1195 14.4305
lclavicle -5.32743e-014 3.18055e-015
lhumerus -42.8047 9.48208 57.2725
lradius 141.332
lwrist 68.459
lhand 33.0641 47.3922
lfingers 7.12502
lthumb 56.4386 64.4366
rfemur -17.8109 19.6369 5.56626
rtibia 27.0806
rfoot -11.6253 5.62184
rtoes 6.89116
lfemur -8.51754 0.667194 -20.2381
ltibia 25.0948
lfoot -16.2918 7.35337
ltoes 0.0558669
